<?xml version="1.0" standalone="no"?>
<!DOCTYPE svg PUBLIC "-//W3C//DTD SVG 20010904//EN"
 "http://www.w3.org/TR/2001/REC-SVG-20010904/DTD/svg10.dtd">
<svg version="1.0" xmlns="http://www.w3.org/2000/svg"
 width="16.000000pt" height="16.000000pt" viewBox="0 0 16.000000 16.000000"
 preserveAspectRatio="xMidYMid meet">
<metadata>
Created by potrace 1.11, written by Peter Selinger 2001-2013
</metadata>
<g transform="translate(0.000000,16.000000) scale(0.001563,-0.001563)"
fill="#000000" stroke="none">
<path d="M0 5120 l0 -5120 5120 0 5120 0 0 5120 0 5120 -5120 0 -5120 0 0
-5120z m5395 4709 c22 -5 60 -9 84 -9 42 0 71 -4 266 -36 206 -34 256 -45 520
-113 84 -22 244 -74 355 -116 79 -29 177 -68 215 -85 22 -10 65 -28 95 -41 69
-29 330 -163 381 -195 21 -13 41 -24 44 -24 7 0 122 -71 253 -157 413 -271
825 -656 1150 -1075 l51 -67 -38 -33 c-22 -18 -93 -72 -160 -120 l-120 -88
-48 63 c-153 202 -388 459 -528 580 -38 33 -90 78 -115 101 -74 69 -458 356
-476 356 -3 0 -20 10 -37 23 -18 12 -41 27 -52 33 -11 6 -64 36 -118 67 -90
53 -285 150 -417 209 -56 25 -270 106 -390 147 -85 30 -138 44 -295 81 -212
50 -224 53 -470 90 -143 22 -356 35 -565 34 -345 0 -599 -28 -955 -105 -43 -9
-198 -49 -280 -73 -103 -29 -315 -104 -415 -147 -14 -6 -38 -17 -55 -24 -151
-65 -237 -107 -380 -186 -201 -111 -486 -300 -606 -403 -20 -17 -47 -40 -60
-50 -96 -77 -223 -194 -334 -307 -243 -250 -403 -451 -590 -744 -42 -66 -80
-124 -85 -129 -6 -6 -26 -2 -52 11 -24 12 -70 34 -103 49 -105 47 -180 83
-193 92 -15 10 0 40 99 198 56 89 245 355 289 407 10 12 56 67 101 122 168
202 494 513 726 693 99 77 373 262 508 343 170 101 561 290 685 330 14 4 63
22 110 39 215 80 518 160 770 204 184 32 228 38 315 48 222 25 819 30 920 7z
m-65 -819 c184 -19 361 -46 470 -71 25 -6 74 -17 110 -25 120 -26 399 -113
495 -154 11 -5 56 -23 100 -41 135 -55 373 -178 525 -272 267 -165 456 -314
684 -536 175 -172 426 -461 426 -491 0 -7 -325 -250 -334 -250 -2 0 -48 57
-102 128 -151 195 -440 478 -642 627 -186 138 -373 253 -557 344 -72 35 -138
67 -148 72 -63 33 -344 132 -465 165 -313 85 -604 124 -939 124 -185 0 -312
-8 -473 -32 -41 -6 -100 -14 -130 -18 -103 -14 -336 -73 -495 -126 -242 -80
-479 -190 -710 -329 -103 -63 -352 -241 -435 -312 -264 -226 -512 -509 -697
-796 -25 -37 -50 -70 -57 -73 -11 -4 -88 28 -253 108 -35 16 -63 34 -63 40 0
29 230 364 345 504 288 348 615 630 1019 877 11 7 43 26 70 43 28 17 125 67
216 111 149 72 223 104 345 150 22 9 49 19 60 23 29 12 86 31 120 40 17 5 55
16 85 25 226 67 433 108 705 139 138 16 585 20 725 6z m-68 -875 c216 -26 347
-50 483 -87 39 -11 84 -23 100 -27 27 -7 163 -55 275 -96 174 -64 485 -241
675 -385 192 -145 442 -384 543 -520 15 -19 41 -53 59 -74 19 -23 29 -44 25
-52 -4 -7 -62 -53 -130 -103 -84 -62 -128 -89 -137 -84 -8 5 -31 31 -52 59
-254 339 -636 638 -1043 817 -264 116 -503 179 -826 216 -295 35 -721 -9
-1019 -103 -44 -14 -101 -32 -126 -40 -112 -35 -304 -126 -479 -226 -291 -167
-609 -463 -813 -756 -32 -45 -63 -84 -70 -87 -7 -2 -33 5 -57 16 -195 89 -271
128 -268 137 9 28 204 285 283 374 368 413 820 711 1340 884 81 27 190 57 300
82 63 15 211 38 320 49 55 6 111 13 125 15 72 10 382 4 492 -9z m-7 -2072
l134 -138 -89 -90 c-50 -50 -90 -93 -90 -97 0 -4 41 -47 90 -95 l90 -88 -137
-137 c-75 -76 -137 -138 -137 -138 -1 0 0 81 1 180 1 99 -1 180 -5 180 -4 0
-37 -30 -74 -67 l-68 -68 -25 25 -24 25 84 89 c47 49 85 93 85 96 0 4 -38 47
-85 96 -46 49 -84 92 -85 95 0 4 12 14 26 24 l26 17 69 -68 69 -68 0 54 c0
114 5 310 7 310 2 0 64 -62 138 -137z m-2515 -433 l0 -110 -125 0 -125 0 0
110 0 110 125 0 125 0 0 -110z m1108 87 c121 -35 195 -108 232 -226 41 -130
15 -270 -67 -362 -50 -55 -137 -104 -205 -115 -21 -4 -38 -10 -38 -15 0 -5 4
-9 9 -9 4 0 38 -28 75 -62 74 -67 115 -124 259 -360 l97 -158 -159 0 -158 0
-146 220 c-214 320 -224 329 -369 338 l-88 5 0 -282 0 -281 -135 0 -135 0 0
666 0 666 388 -5 c311 -3 397 -7 440 -20z m2392 -642 l0 -665 -120 0 -120 0 0
67 0 67 -47 -46 c-166 -163 -421 -134 -552 63 -57 86 -82 171 -88 304 -11 246
75 425 240 501 54 25 74 29 157 29 84 0 101 -3 150 -28 30 -16 72 -45 93 -65
l37 -36 0 237 0 237 125 0 125 0 0 -665z m-1317 295 c72 -27 140 -90 157 -145
8 -26 15 -152 20 -355 7 -326 9 -341 55 -429 l16 -32 -128 3 -127 3 -16 52
-15 51 -38 -33 c-78 -68 -186 -101 -298 -92 -116 10 -194 57 -245 149 -26 47
-29 63 -29 138 0 75 3 91 29 138 52 94 109 123 346 177 207 48 204 46 198 100
-3 25 -13 56 -22 69 -20 32 -84 50 -154 44 -61 -5 -99 -29 -124 -77 -9 -18
-18 -35 -21 -37 -5 -5 -218 24 -225 30 -8 9 55 132 87 169 36 41 115 83 181
97 25 5 101 8 170 6 99 -3 137 -9 183 -26z m2160 0 c72 -27 140 -90 157 -145
8 -26 15 -152 20 -355 7 -326 9 -341 55 -429 l16 -32 -128 3 -127 3 -16 52
-15 51 -38 -33 c-78 -68 -186 -101 -298 -92 -116 10 -194 57 -245 149 -26 47
-29 63 -29 138 0 75 3 91 29 138 52 94 109 123 346 177 207 48 204 46 198 100
-3 25 -13 56 -22 69 -20 32 -84 50 -154 44 -61 -5 -99 -29 -124 -77 -9 -18
-18 -35 -21 -37 -5 -5 -218 24 -225 30 -8 9 55 132 87 169 36 41 115 83 181
97 25 5 101 8 170 6 99 -3 137 -9 183 -26z m984 15 c28 -8 55 -21 61 -28 8 -9
2 -42 -20 -117 -17 -58 -32 -106 -33 -108 -1 -1 -17 5 -35 14 -92 46 -174 23
-215 -60 -35 -71 -44 -164 -45 -438 l0 -238 -32 -1 c-22 -1 -26 -3 -13 -6 11
-3 58 -18 105 -33 113 -37 113 -28 28 -285 -98 -300 -257 -598 -472 -885 -203
-273 -591 -621 -851 -765 -11 -6 -47 -27 -80 -45 -105 -59 -309 -160 -326
-160 -9 0 -19 -3 -23 -7 -16 -17 -297 -109 -426 -139 -394 -95 -801 -111
-1200 -48 -107 17 -161 28 -270 56 -41 11 -88 23 -105 28 -36 9 -182 57 -210
69 -11 5 -67 28 -125 52 -106 43 -263 122 -332 166 -21 12 -40 23 -42 23 -3 0
-56 34 -118 76 -445 300 -788 682 -1035 1154 -66 127 -157 346 -150 363 3 8
23 23 44 34 21 11 55 30 75 41 21 12 68 38 105 58 37 21 77 43 88 51 11 7 22
13 25 13 6 0 25 -41 50 -110 7 -19 37 -86 67 -148 349 -744 1024 -1294 1808
-1475 169 -39 208 -45 375 -63 233 -24 526 -9 765 41 214 45 316 75 490 147
733 302 1292 906 1540 1663 41 123 42 135 15 135 -20 0 -20 7 -20 485 l0 485
120 0 120 0 0 -66 0 -67 41 56 c68 91 143 115 256 82z m-5327 -490 l0 -485
-125 0 -125 0 0 485 0 485 125 0 125 0 0 -485z m5687 -709 c21 -7 76 -25 123
-40 223 -68 205 -59 203 -98 -2 -37 -93 -320 -137 -425 -53 -129 -136 -303
-187 -393 -17 -30 -45 -80 -62 -110 -16 -30 -52 -88 -78 -129 -27 -41 -49 -76
-49 -78 0 -2 -37 -54 -81 -115 -273 -376 -614 -706 -992 -962 -55 -36 -102
-66 -105 -66 -3 0 -13 -6 -21 -14 -9 -8 -36 -25 -61 -39 -25 -14 -70 -39 -100
-56 -107 -61 -402 -201 -424 -201 -6 0 -16 -4 -21 -8 -16 -14 -227 -89 -330
-117 -27 -8 -75 -21 -105 -30 -30 -8 -73 -19 -95 -24 -22 -5 -83 -18 -135 -29
-251 -53 -463 -74 -763 -75 -281 0 -453 14 -707 60 -89 16 -274 57 -325 72
-16 5 -57 17 -90 26 -78 22 -191 62 -300 105 -102 41 -181 74 -194 80 -9 5
-62 31 -118 59 -120 59 -198 101 -271 147 -29 19 -54 34 -57 34 -9 0 -236 157
-315 218 -149 115 -212 170 -354 310 -274 270 -498 559 -675 872 -33 58 -156
306 -185 375 -10 22 -22 50 -28 62 -13 26 -1 45 41 66 32 17 148 79 219 119
l52 30 20 -47 c11 -26 20 -49 20 -51 0 -8 143 -295 179 -359 28 -49 144 -231
173 -270 4 -5 31 -41 60 -80 259 -349 604 -664 986 -904 126 -79 384 -208 527
-263 76 -30 246 -90 280 -99 17 -4 55 -15 85 -24 30 -9 73 -20 95 -25 22 -4
72 -15 110 -24 192 -44 499 -76 726 -76 219 0 520 31 714 75 39 8 84 18 100
21 17 3 53 12 80 20 28 8 75 22 105 31 30 9 64 19 75 24 11 4 29 10 40 12 11
3 52 18 90 32 39 15 86 33 106 41 20 7 67 27 105 44 559 254 1015 619 1385
1111 180 239 370 581 459 829 7 19 19 49 26 65 7 17 20 55 29 85 9 30 20 64
25 75 4 11 16 48 25 83 20 69 31 74 102 48z m815 -256 c13 -5 84 -27 158 -50
186 -56 182 -54 174 -87 -24 -107 -87 -298 -159 -483 -89 -227 -168 -392 -310
-645 -267 -474 -673 -954 -1110 -1312 -318 -260 -740 -520 -1105 -681 -86 -38
-175 -75 -200 -83 -14 -4 -63 -22 -110 -39 -188 -70 -421 -134 -650 -180 -100
-19 -130 -25 -281 -50 -260 -45 -815 -60 -1084 -30 -261 30 -464 62 -605 95
-214 51 -284 70 -350 91 -41 13 -97 31 -125 40 -27 9 -59 19 -70 24 -11 4 -60
23 -110 41 -49 18 -94 36 -99 41 -6 4 -16 8 -23 8 -37 0 -524 245 -670 337
-359 228 -578 400 -850 670 -198 197 -248 250 -343 368 -238 293 -426 582
-582 895 -123 247 -141 287 -135 303 2 7 33 27 68 45 35 18 87 45 114 60 119
67 167 92 176 92 6 0 19 -21 30 -48 91 -210 273 -542 403 -732 248 -363 564
-703 891 -961 147 -115 372 -271 465 -322 19 -11 46 -27 60 -37 90 -61 357
-191 555 -270 11 -4 43 -17 70 -28 127 -51 423 -144 525 -165 14 -3 57 -12 95
-21 460 -106 1008 -128 1520 -60 504 66 1091 262 1510 504 39 22 79 45 90 50
25 12 51 29 92 57 17 13 34 23 36 23 12 0 214 143 331 233 320 248 581 513
828 842 89 119 288 422 288 439 0 3 17 34 38 68 117 192 262 542 372 896 24
76 33 83 82 62z"/>
<path d="M5190 5923 l0 -88 47 47 47 48 -39 40 c-21 22 -43 40 -47 40 -4 0 -8
-39 -8 -87z"/>
<path d="M5190 5557 c0 -48 4 -87 8 -87 4 0 26 18 47 40 l39 40 -47 48 -47 47
0 -88z"/>
<path d="M3290 5354 l0 -166 208 4 c227 4 263 12 305 69 42 58 31 163 -21 211
-45 42 -81 48 -293 48 l-199 0 0 -166z"/>
<path d="M5695 5191 c-51 -23 -78 -54 -106 -115 -41 -94 -35 -295 11 -386 72
-140 265 -145 343 -8 60 103 63 308 7 418 -49 95 -160 135 -255 91z"/>
<path d="M4737 4849 c-136 -34 -162 -45 -192 -81 -63 -75 7 -198 113 -198 77
0 162 62 182 133 6 23 10 72 8 108 l-3 65 -108 -27z"/>
<path d="M6897 4849 c-136 -34 -162 -45 -192 -81 -63 -75 7 -198 113 -198 77
0 162 62 182 133 6 23 10 72 8 108 l-3 65 -108 -27z"/>
</g>
</svg>
